<svg id="logo" xmlns="http://www.w3.org/2000/svg" width="60" height="60" viewBox="0 0 60 60">
    <path id="Path_1108" data-name="Path 1108" d="M97.931,106.653a8.656,8.656,0,0,0,5.525-1.972q.333-.274.643-.583a8.724,8.724,0,0,0-6.168-14.892A12.568,12.568,0,0,1,85.377,76.653a8.723,8.723,0,1,0-8.723,8.723A12.554,12.554,0,0,1,89.206,97.929,8.734,8.734,0,0,0,97.931,106.653Z" transform="translate(-67.93 -67.929)" fill="#623cea"/>
    <path id="Path_1109" data-name="Path 1109" d="M216.706,85.377a8.723,8.723,0,1,0-8.725-8.723,8.733,8.733,0,0,0,8.725,8.723h0Z" transform="translate(-165.429 -67.93)" fill="#623cea"/>
    <path id="Path_1110" data-name="Path 1110" d="M85.377,146.679q0-.218-.011-.435a8.723,8.723,0,1,0-8.722,9.159h.02a8.724,8.724,0,0,0,8.713-8.724Z" transform="translate(-67.93 -116.679)" fill="#623cea"/>
    <path id="Path_1111" data-name="Path 1111" d="M176.679,146.679a8.724,8.724,0,0,0-17.447,0,12.554,12.554,0,0,1-12.553,12.554,8.724,8.724,0,0,0-8.724,8.716v.013a8.723,8.723,0,0,0,17.447-.007q0-.628.061-1.246t.18-1.221q.089-.452.212-.895a12.6,12.6,0,0,1,8.737-8.737q.443-.122.895-.212.151-.03.3-.056.607-.1,1.228-.151.465-.034.937-.034a8.724,8.724,0,0,0,8.724-8.724Z" transform="translate(-116.679 -116.679)" fill="#623cea"/>
    <path id="Path_1112" data-name="Path 1112" d="M76.652,207.983a8.723,8.723,0,0,0,0,17.447h0a8.723,8.723,0,1,0,0-17.447Z" transform="translate(-67.929 -165.43)" fill="#623cea"/>
    <path id="Path_1113" data-name="Path 1113" d="M222.874,210.539a8.721,8.721,0,1,0,2.555,6.168A8.668,8.668,0,0,0,222.874,210.539Z" transform="translate(-165.429 -165.431)" fill="#623cea"/>
  </svg>
  